<svg width="24" height="24" viewBox="0 0 24 24" fill="none" xmlns="http://www.w3.org/2000/svg">
<path d="M20.9 2.00001H3.1C2.80826 2.00001 2.52847 2.1159 2.32218 2.32219C2.11589 2.52848 2 2.80827 2 3.10001V20.9C2 21.0445 2.02845 21.1875 2.08373 21.321C2.13901 21.4544 2.22004 21.5757 2.32218 21.6778C2.42433 21.78 2.54559 21.861 2.67905 21.9163C2.81251 21.9716 2.95555 22 3.1 22H12.68V14.25H10.08V11.25H12.68V9.00001C12.6261 8.47177 12.6885 7.93814 12.8627 7.43655C13.0369 6.93496 13.3188 6.47756 13.6885 6.09642C14.0582 5.71529 14.5068 5.41965 15.0028 5.23025C15.4989 5.04085 16.0304 4.96226 16.56 5.00001C17.3383 4.99522 18.1163 5.03529 18.89 5.12001V7.82001H17.3C16.04 7.82001 15.8 8.42001 15.8 9.29001V11.22H18.8L18.41 14.22H15.8V22H20.9C21.0445 22 21.1875 21.9716 21.321 21.9163C21.4544 21.861 21.5757 21.78 21.6778 21.6778C21.78 21.5757 21.861 21.4544 21.9163 21.321C21.9715 21.1875 22 21.0445 22 20.9V3.10001C22 2.95556 21.9715 2.81252 21.9163 2.67906C21.861 2.5456 21.78 2.42434 21.6778 2.32219C21.5757 2.22005 21.4544 2.13902 21.321 2.08374C21.1875 2.02846 21.0445 2.00001 20.9 2.00001Z" fill="#303030"/>
</svg>
