<svg width="24" height="24" viewBox="0 0 24 24" fill="none" xmlns="http://www.w3.org/2000/svg">
<path d="M21.0904 1.34589H2.68169C1.80017 1.34589 1.08569 2.03853 1.08569 2.89341V21.3977C1.08569 22.2525 1.80041 22.9459 2.68169 22.9459H21.0904C21.9719 22.9459 22.6855 22.2523 22.6855 21.3977V2.89341C22.6855 2.03877 21.9719 1.34589 21.0904 1.34589ZM7.63409 19.4265H4.37057V9.67437H7.63409V19.4265ZM6.00257 8.34213H5.98073C4.88633 8.34213 4.17689 7.59357 4.17689 6.65661C4.17689 5.70069 4.90721 4.97253 6.02321 4.97253C7.13945 4.97253 7.82609 5.70045 7.84769 6.65661C7.84769 7.59381 7.13969 8.34213 6.00257 8.34213ZM19.3984 19.4265H16.1359V14.2089C16.1359 12.8976 15.6631 12.0031 14.4832 12.0031C13.5806 12.0031 13.0449 12.6067 12.8097 13.1892C12.7223 13.3975 12.701 13.6884 12.701 13.9793V19.4263H9.43889C9.43889 19.4263 9.48161 10.5888 9.43889 9.67413H12.7012V11.0568C13.1344 10.3925 13.9082 9.44469 15.641 9.44469C17.7883 9.44469 19.3984 10.8377 19.3984 13.8345V19.4265ZM12.6801 11.0877C12.6859 11.0786 12.6935 11.0676 12.7012 11.057V11.0877H12.6801Z" fill="#303030"/>
</svg>
